<svg width="300" height="300" xmlns="http://www.w3.org/2000/svg">
 <g>
  <title>Layer 1</title>
  <rect id="svg_1" class="logo-background-square" height="300" width="300" y="-65.00007" x="-395.00043" fill="#FFFFFF"/>
  <g transform="matrix(0.85, 0, 0, 0.85, 22.5, 22.5001)" fill="#FFD7D7" id="640fb903-7c97-3a8b-d0a7-369102908d0a">
   <svg id="svg_2" viewBox="-205 207 100 100" xmlns="http://www.w3.org/2000/svg">
    <switch>
     <g id="svg_3">
      <path id="svg_4" d="m-155,298.8c11.2,0 21.7,-4.3 29.6,-12.2c7.9,-7.9 12.2,-18.4 12.2,-29.6c0,-11.2 -4.3,-21.7 -12.2,-29.6c-7.9,-7.9 -18.4,-12.2 -29.6,-12.2s-21.7,4.3 -29.6,12.2c-7.9,7.9 -12.2,18.4 -12.2,29.6c0,11.2 4.3,21.7 12.2,29.6c7.9,7.9 18.4,12.2 29.6,12.2zm2.4,-7.1c-0.8,0.1 -1.6,0.1 -2.4,0.1c-1.1,0 -2.2,-0.1 -3.3,-0.2c-3.6,-5.6 -6.3,-11.6 -7.9,-17.9l17.7,0c0.6,1.5 1.7,2.9 3,3.8c-1.7,5 -4.1,9.7 -7.1,14.2zm9.5,-2c1.9,-3.5 3.4,-7 4.6,-10.7c2.9,-0.6 5.2,-2.6 6.3,-5.3l7.7,0c-4,7.3 -10.7,13 -18.6,16zm22.8,-32.7c0,3.3 -0.5,6.5 -1.3,9.6l-10.8,0c-0.6,-1.3 -1.6,-2.5 -2.8,-3.4c0.2,-2.2 0.3,-4.4 0.3,-6.6c0,-3.1 -0.2,-6.2 -0.6,-9.2l13.8,0c1,3 1.4,6.3 1.4,9.6zm-4.2,-16.7l-12.2,0c-1.3,-5.5 -3.2,-10.7 -5.8,-15.7c7.6,2.9 14,8.6 18,15.7zm-17.4,16.3c0,1.7 -0.1,3.4 -0.2,5.1c-2.8,0.6 -5.1,2.4 -6.2,4.9l-19.3,0c-0.4,-3 -0.7,-6.1 -0.7,-9.1c0,-1.9 0.1,-3.8 0.3,-5.7c2.6,-0.5 4.7,-2.2 6,-4.4l19.5,0c0.4,3 0.6,6.1 0.6,9.2zm-15.7,-34.2c0.9,-0.1 1.8,-0.1 2.6,-0.1c1,0 2,0 3,0.1c3.6,5.6 6.3,11.6 7.9,17.9l-17.4,0c-0.6,-1.7 -1.7,-3.2 -3.1,-4.3c1.8,-4.8 4.1,-9.3 7,-13.6zm-9.5,2c-1.7,3.2 -3.2,6.6 -4.4,10c-3.1,0.6 -5.6,2.9 -6.6,5.8l-7.3,0c3.9,-7.1 10.4,-12.8 18.3,-15.8zm-22.6,32.6c0,-3.3 0.5,-6.6 1.4,-9.6l10.9,0c0.6,1.1 1.5,2.1 2.5,2.9c-0.2,2.4 -0.4,4.8 -0.4,7.2c0,3.1 0.2,6.1 0.6,9.1l-13.6,0c-1,-3.1 -1.4,-6.3 -1.4,-9.6zm16.2,16.6c1.3,5.4 3.2,10.7 5.8,15.7c-7.6,-3 -13.9,-8.6 -17.8,-15.7l12,0z"/>
     </g>
    </switch>
   </svg>
  </g>
  <path d="m-23.0001,-58.2002c-1,0 -0.85163,2.87097 0,4c6.19999,8.21951 15.3155,19.87531 33.00003,33.00003c20.26714,15.04143 38.46089,25.38467 56.00006,39.00004c12.33902,9.57858 27.02477,21.97229 36.00004,30.00003c10.02773,8.9691 15.85828,15.10345 21.00002,22.00002c6.81499,9.1409 14.11535,21.51676 22.00002,34.00004c9.9333,15.72674 20.71136,29.19585 33.00003,47.00005c4.88651,7.07973 14.19299,22.69101 28.00003,38.00005c17.0488,18.90344 45.21777,37.19521 83.00011,64.00006c23.82034,16.89946 34.72385,29.34435 41.00003,37.00005c4.57175,5.57666 8.68372,11.34354 13,15c6.56378,5.56036 18.95529,16.07318 32.00006,24.00003c14.94922,9.08414 26.02338,15.96637 39.00003,25.00003c10.0181,6.97406 21.97913,14.0463 33.00003,19.00003c8.98312,4.03778 13.00003,7 17.00003,8l3,2l2,2l1,0" id="svg_8" fill="none"/>
  <path d="m104.00003,188.80006c-1,0 -0.88857,-1.19408 -6.00001,-4c-1.96015,-1.07602 -16.57722,-10.84854 -34.00003,-19.00003c-21.52987,-10.07303 -39.939,-17.14124 -56.00006,-24.00002c-11.9555,-5.10553 -21.30362,-6.37259 -28.00003,-10.00002c-3.17029,-1.71735 -9.76109,-4.4159 -13.00001,-6.00001c-5.68145,-2.7787 -13.00002,-5.00001 -21.00002,-9.00001c-12.00002,-6.00001 -23.94633,-11.11986 -35.00004,-16.00002c-6.96699,-3.0759 -13.7021,-5.57357 -21.00002,-9.00001c-7.73399,-3.63118 -12.00002,-6.00001 -16.00002,-8.00001l-1,-1" id="svg_9" fill="none"/>
 </g>
</svg>